---------------------------------------------------------
|New.World.Order.Blueprint.of.Madmen.2012.720p.WEBDL.AVC|
---------------------------------------------------------

---------------------
|General Information|
---------------------

Video
-----
ID : 1
Format : AVC
Format/Info : Advanced Video Codec
Format profile : High@L3.1
Format settings, CABAC : Yes
Format settings, ReFrames : 1 frame
Format settings, GOP : M=1, N=30
Codec ID : avc1
Codec ID/Info : Advanced Video Coding
Duration : 39mn 52s
Bit rate : 2 226 Kbps
Maximum bit rate : 5 980 Kbps
Width : 1 280 pixels
Height : 720 pixels
Display aspect ratio : 16:9
Frame rate mode : Constant
Frame rate : 29.970 fps
Color space : YUV
Chroma subsampling : 4:2:0
Bit depth : 8 bits
Scan type : Progressive
Bits/(Pixel*Frame) : 0.081
Stream size : 635 MiB (94%)
Tagged date : UTC 2012-02-29 04:54:38

Audio
-----
ID : 2
Format : AAC
Format/Info : Advanced Audio Codec
Format profile : LC
Codec ID : 40
Duration : 39mn 52s
Bit rate mode : Variable
Bit rate : 152 Kbps
Maximum bit rate : 196 Kbps
Channel(s) : 2 channels
Channel positions : Front: L R
Sampling rate : 44.1 KHz
Compression mode : Lossy
Stream size : 43.3 MiB (6%)

Plot
----
A new documentary from Alex Jones definitively declares war against the attempts to control the population through a fear of false dangers. The facts are inΓÇô terrorism as a mass threat is a hoax. It is government, and the elite who control it, that pose the real threat to humanity. This new film will serve as evidence to the fact that government is historyΓÇÖs greatest killerΓÇô with various regimes claiming more than 262,000,000 unnatural deaths in the 20th Century alone. Now, a 21st century technocratic global corporate tyranny seeks to kill not mere millions but billionsΓÇô through their super weapons, central banking warfare model and eugenics mindset.